HIERARCHY
ROOT Hips
{
    OFFSET   0.000000   0.000000   0.000000
    CHANNELS 6 Xposition Yposition Zposition Zrotation Xrotation Yrotation
    JOINT Chest
    {
        OFFSET   0.000000   8.007240   0.000000
        CHANNELS 3 Zrotation Xrotation Yrotation
        JOINT Chest2
        {
            OFFSET   0.000000  22.077100   0.000000
            CHANNELS 3 Zrotation Xrotation Yrotation
            JOINT Neck
            {
                OFFSET   0.000000  23.254800   0.000000
                CHANNELS 3 Zrotation Xrotation Yrotation
                JOINT Head
                {
                    OFFSET   0.000000  14.370000   1.956600
                    CHANNELS 3 Zrotation Xrotation Yrotation
                    End Site
                    {
                        OFFSET   0.000000  19.566000   0.000000
                    }
                }
            }
            JOINT LeftCollar
            {
                OFFSET   3.911900  19.017000  -0.467064
                CHANNELS 3 Zrotation Xrotation Yrotation
                JOINT LeftShoulder
                {
                    OFFSET  10.383700   0.000000   0.000000
                    CHANNELS 3 Zrotation Xrotation Yrotation
                    JOINT LeftElbow
                    {
                        OFFSET  26.662100   0.001476   0.000517
                        CHANNELS 3 Zrotation Xrotation Yrotation
                        JOINT LeftWrist
                        {
                            OFFSET  28.869000  -0.000025  -0.000106
                            CHANNELS 3 Zrotation Xrotation Yrotation
                            JOINT LeftFinger0
                            {
                                OFFSET   2.044660  -2.323460   3.252850
                                CHANNELS 3 Zrotation Xrotation Yrotation
                                JOINT LeftFinger01
                                {
                                    OFFSET   3.088130   0.000000   0.000000
                                    CHANNELS 3 Zrotation Xrotation Yrotation
                                    JOINT LeftFinger02
                                    {
                                        OFFSET   2.639460   0.000000   0.000000
                                        CHANNELS 3 Zrotation Xrotation Yrotation
                                        End Site
                                        {
                                            OFFSET   2.582190   0.000000   0.000000
                                        }
                                    }
                                }
                            }
                            JOINT LeftFinger1
                            {
                                OFFSET   8.364480   0.000000   3.252850
                                CHANNELS 3 Zrotation Xrotation Yrotation
                                JOINT LeftFinger11
                                {
                                    OFFSET   4.646930   0.000000   0.000000
                                    CHANNELS 3 Zrotation Xrotation Yrotation
                                    JOINT LeftFinger12
                                    {
                                        OFFSET   2.323460   0.000000   0.000000
                                        CHANNELS 3 Zrotation Xrotation Yrotation
                                        End Site
                                        {
                                            OFFSET   2.273050   0.000000   0.000000
                                        }
                                    }
                                }
                            }
                            JOINT LeftFinger2
                            {
                                OFFSET   8.364490   0.000015   1.078090
                                CHANNELS 3 Zrotation Xrotation Yrotation
                                JOINT LeftFinger21
                                {
                                    OFFSET   5.111620   0.000000   0.000000
                                    CHANNELS 3 Zrotation Xrotation Yrotation
                                    JOINT LeftFinger22
                                    {
                                        OFFSET   2.788160   0.000016   0.000000
                                        CHANNELS 3 Zrotation Xrotation Yrotation
                                        End Site
                                        {
                                            OFFSET   2.727660   0.000000   0.000000
                                        }
                                    }
                                }
                            }
                            JOINT LeftFinger3
                            {
                                OFFSET   7.899780   0.000017  -1.078090
                                CHANNELS 3 Zrotation Xrotation Yrotation
                                JOINT LeftFinger31
                                {
                                    OFFSET   4.646930   0.000000   0.000000
                                    CHANNELS 3 Zrotation Xrotation Yrotation
                                    JOINT LeftFinger32
                                    {
                                        OFFSET   2.323470   0.000000   0.000000
                                        CHANNELS 3 Zrotation Xrotation Yrotation
                                        End Site
                                        {
                                            OFFSET   2.273050   0.000000   0.000000
                                        }
                                    }
                                }
                            }
                            JOINT LeftFinger4
                            {
                                OFFSET   7.435090   0.000000  -3.252850
                                CHANNELS 3 Zrotation Xrotation Yrotation
                                JOINT LeftFinger41
                                {
                                    OFFSET   3.717550   0.000000   0.000000
                                    CHANNELS 3 Zrotation Xrotation Yrotation
                                    JOINT LeftFinger42
                                    {
                                        OFFSET   1.858770   0.000000   0.000000
                                        CHANNELS 3 Zrotation Xrotation Yrotation
                                        End Site
                                        {
                                            OFFSET   1.818440   0.000000   0.000000
                                        }
                                    }
                                }
                            }
                        }
                    }
                }
            }
            JOINT RightCollar
            {
                OFFSET  -3.911900  19.017000  -0.467063
                CHANNELS 3 Zrotation Xrotation Yrotation
                JOINT RightShoulder
                {
                    OFFSET -10.383700   0.000019   0.000000
                    CHANNELS 3 Zrotation Xrotation Yrotation
                    JOINT RightElbow
                    {
                        OFFSET -26.662100   0.001175   0.000102
                        CHANNELS 3 Zrotation Xrotation Yrotation
                        JOINT RightWrist
                        {
                            OFFSET -28.869000   0.000016  -0.000079
                            CHANNELS 3 Zrotation Xrotation Yrotation
                            JOINT RightFinger0
                            {
                                OFFSET  -2.044660  -2.323490   3.252850
                                CHANNELS 3 Zrotation Xrotation Yrotation
                                JOINT RightFinger01
                                {
                                    OFFSET  -3.088140   0.000000   0.000000
                                    CHANNELS 3 Zrotation Xrotation Yrotation
                                    JOINT RightFinger02
                                    {
                                        OFFSET  -2.639460   0.000000   0.000000
                                        CHANNELS 3 Zrotation Xrotation Yrotation
                                        End Site
                                        {
                                            OFFSET  -2.582190   0.000000   0.000000
                                        }
                                    }
                                }
                            }
                            JOINT RightFinger1
                            {
                                OFFSET  -8.364480   0.000000   3.252850
                                CHANNELS 3 Zrotation Xrotation Yrotation
                                JOINT RightFinger11
                                {
                                    OFFSET  -4.646930   0.000000   0.000000
                                    CHANNELS 3 Zrotation Xrotation Yrotation
                                    JOINT RightFinger12
                                    {
                                        OFFSET  -2.323470   0.000000   0.000000
                                        CHANNELS 3 Zrotation Xrotation Yrotation
                                        End Site
                                        {
                                            OFFSET  -2.273050   0.000000   0.000000
                                        }
                                    }
                                }
                            }
                            JOINT RightFinger2
                            {
                                OFFSET  -8.364480   0.000000   1.078090
                                CHANNELS 3 Zrotation Xrotation Yrotation
                                JOINT RightFinger21
                                {
                                    OFFSET  -5.111620   0.000000   0.000000
                                    CHANNELS 3 Zrotation Xrotation Yrotation
                                    JOINT RightFinger22
                                    {
                                        OFFSET  -2.788160   0.000000   0.000000
                                        CHANNELS 3 Zrotation Xrotation Yrotation
                                        End Site
                                        {
                                            OFFSET  -2.727660   0.000000   0.000000
                                        }
                                    }
                                }
                            }
                            JOINT RightFinger3
                            {
                                OFFSET  -7.899780   0.000000  -1.078090
                                CHANNELS 3 Zrotation Xrotation Yrotation
                                JOINT RightFinger31
                                {
                                    OFFSET  -4.646930   0.000000   0.000000
                                    CHANNELS 3 Zrotation Xrotation Yrotation
                                    JOINT RightFinger32
                                    {
                                        OFFSET  -2.323470   0.000000   0.000000
                                        CHANNELS 3 Zrotation Xrotation Yrotation
                                        End Site
                                        {
                                            OFFSET  -2.273050   0.000000   0.000000
                                        }
                                    }
                                }
                            }
                            JOINT RightFinger4
                            {
                                OFFSET  -7.435090   0.000000  -3.252850
                                CHANNELS 3 Zrotation Xrotation Yrotation
                                JOINT RightFinger41
                                {
                                    OFFSET  -3.717550   0.000000   0.000000
                                    CHANNELS 3 Zrotation Xrotation Yrotation
                                    JOINT RightFinger42
                                    {
                                        OFFSET  -1.858770   0.000000   0.000000
                                        CHANNELS 3 Zrotation Xrotation Yrotation
                                        End Site
                                        {
                                            OFFSET  -1.818440   0.000000   0.000000
                                        }
                                    }
                                }
                            }
                        }
                    }
                }
            }
        }
    }
    JOINT LeftHip
    {
        OFFSET   9.783040   0.000000   0.000000
        CHANNELS 3 Zrotation Xrotation Yrotation
        JOINT LeftKnee
        {
            OFFSET   0.000032 -41.789100  -0.002222
            CHANNELS 3 Zrotation Xrotation Yrotation
            JOINT LeftAnkle
            {
                OFFSET   0.000087 -41.133200  -0.000135
                CHANNELS 3 Zrotation Xrotation Yrotation
                JOINT LeftToe
                {
                    OFFSET   0.000000  -6.358960  14.674500
                    CHANNELS 3 Zrotation Xrotation Yrotation
                    End Site
                    {
                        OFFSET   0.000000   0.000000   3.913200
                    }
                }
            }
        }
    }
    JOINT RightHip
    {
        OFFSET  -9.783040   0.000000   0.000000
        CHANNELS 3 Zrotation Xrotation Yrotation
        JOINT RightKnee
        {
            OFFSET   0.000047 -41.789100  -0.000896
            CHANNELS 3 Zrotation Xrotation Yrotation
            JOINT RightAnkle
            {
                OFFSET  -0.000117 -41.133300  -0.000248
                CHANNELS 3 Zrotation Xrotation Yrotation
                JOINT RightToe
                {
                    OFFSET   0.000000  -6.358970  14.674500
                    CHANNELS 3 Zrotation Xrotation Yrotation
                    End Site
                    {
                        OFFSET   0.000000   0.000000   3.913200
                    }
                }
            }
        }
    }
}
MOTION
Frames: 6
Frame Time:   0.016667
 -0.016653  90.050900  -1.249830  -0.677728  -3.345860  -3.018670   0.404534   1.323530  -0.449026   0.819766   2.643820  -0.907759   0.901757   1.240080  -0.018099   1.483110   2.511930   3.475600  -4.517430   1.062970   6.309070 -75.290000  14.420500   3.667850  -3.344150  -9.073110 -13.572000  13.784300  -3.375880   5.074740  48.142100  40.889300 -81.348900 -23.451600   0.006405   0.012203  -6.725790  -0.001708   0.001657 -34.671700   7.548170 -10.746900 -28.949200   0.000371   0.008937 -20.264500  -0.002432   0.005043 -28.753300   1.386190  -2.525640 -40.997800   0.003797  -0.003062 -27.304600   0.006528  -0.006412 -28.119300  -0.109914   0.205731 -32.813000  -0.004318   0.001216 -21.853500   0.002660  -0.006056 -30.874700  -0.893864   1.494630 -46.329500   0.004116  -0.016792 -30.855500   0.000100  -0.004082   8.988920   3.001510   5.758250  68.725900   3.955530  -4.492770   1.867290 -11.308200  10.568800 -16.367700 -16.554900  -1.938620 -35.803800  29.963700  67.576700  31.440700  -0.003439  -0.000660  10.720300  -0.001197  -0.009454  33.227200   2.462380   3.752830  27.252300   0.000571  -0.007555  19.076600  -0.002374  -0.004445  28.087800  -1.760750  -3.294990  32.952400  -0.001281   0.005288  21.946300  -0.003155  -0.011587  28.273000  -3.897990  -7.203510  36.368300  -0.001754   0.005417  24.221300   0.008967  -0.005402  36.628100  -4.905160  -6.560600  55.365000  -0.001305  -0.002879  36.873100   0.005659  -0.004679  -0.568389   3.904830   2.436980  -0.148803   1.397700  11.050900  -3.598890  -3.451980   3.345860  -0.000000   0.000000   0.000000   2.406980   3.566630  -7.149290  -0.856129   2.814170  -6.014170 -10.153800   0.013492   3.097930   0.000000   0.000000   0.000000
 -0.036645  90.050800  -1.259540  -0.679663  -3.380480  -3.023560   0.414876   1.346800  -0.445032   0.840561   2.690320  -0.900189   0.870214   1.246330  -0.018099   1.431150   2.524640   3.523770  -4.543730   0.994907   6.317210 -75.392000  14.629800   3.608340  -3.306180  -9.111770 -13.487200  13.858600  -3.318500   5.127620  48.078900  40.889000 -81.398600 -23.468900   0.006404   0.012209  -6.734460  -0.001700   0.001640 -34.730000   7.565340 -10.750700 -28.998600   0.000367   0.008941 -20.299000  -0.002422   0.005046 -28.752700   1.391960  -2.536030 -41.042100   0.003799  -0.003044 -27.334100   0.006532  -0.006417 -28.126600  -0.100269   0.187645 -32.865400  -0.004322   0.001229 -21.888400   0.002669  -0.006050 -30.899200  -0.886633   1.481100 -46.366000   0.004116  -0.016802 -30.879800   0.000071  -0.004072   9.050010   2.902580   5.840820  68.704300   4.019140  -4.535020   1.798420 -11.178200  10.611300 -16.478000 -16.425700  -1.982680 -35.858200  30.154100  67.809100  31.501900  -0.003443  -0.000566  10.750900  -0.001203  -0.009482  33.281100   2.488480   3.784400  27.297800   0.000566  -0.007555  19.108400  -0.002377  -0.004430  28.100000  -1.737500  -3.250010  33.033500  -0.001282   0.005313  22.000300  -0.003173  -0.011577  28.283700  -3.873170  -7.155070  36.458900  -0.001758   0.005444  24.281600   0.008989  -0.005416  36.682200  -4.878330  -6.512600  55.440900  -0.001322  -0.002867  36.923700   0.005677  -0.004675  -0.568753   3.914210   2.423210  -0.143645   1.413600  11.065800  -3.599100  -3.442040   3.351270   0.000000   0.000000   0.000000   2.469420   3.593740  -7.124450  -0.922475   2.823730  -6.060730 -10.144700   0.002436   3.118990   0.000000   0.000000  -0.000000
 -0.069126  90.050800  -1.278030  -0.683739  -3.443320  -3.039170   0.432121   1.389870  -0.439237   0.875278   2.776350  -0.889346   0.812808   1.263060  -0.018100   1.336740   2.558780   3.624200  -4.613890   0.874728   6.325270 -75.556700  14.986800   3.489970  -3.243460  -9.234010 -13.357100  13.958300  -3.184790   5.206350  48.004300  40.869500 -81.454100 -23.486300   0.006402   0.012222  -6.743130  -0.001684   0.001601 -34.817100   7.590810 -10.754800 -29.072200   0.000359   0.008951 -20.350500  -0.002391   0.005057 -28.752000   1.397730  -2.546420 -41.108500   0.003804  -0.003005 -27.378300   0.006542  -0.006432 -28.137200  -0.084742   0.158554 -32.941500  -0.004335   0.001263 -21.939000   0.002692  -0.006035 -30.939200  -0.875598   1.460340 -46.425700   0.004116  -0.016829 -30.919500   0.000000  -0.004046   9.148790   2.748010   5.973540  68.669100   4.205940  -4.578000   1.687110 -10.981400  10.651300 -16.626800 -16.092600  -2.044500 -35.811500  30.368700  68.081400  31.601600  -0.003448  -0.000399  10.800800  -0.001211  -0.009548  33.360200   2.532360   3.839060  27.364800   0.000561  -0.007556  19.155400  -0.002387  -0.004392  28.118300  -1.698880  -3.175600  33.152800  -0.001285   0.005376  22.079800  -0.003221  -0.011556  28.300100  -3.833510  -7.077910  36.594800  -0.001767   0.005510  24.372100   0.009044  -0.005447  36.766400  -4.835340  -6.436400  55.558700  -0.001361  -0.002838  37.002100   0.005723  -0.004660  -0.569615   3.931150   2.403860  -0.135801   1.443350  11.090400  -3.598980  -3.425920   3.363970   0.000000   0.000000   0.000000   2.569240   3.639830  -7.071710  -1.029170   2.844070  -6.141240 -10.134900  -0.015708   3.152710  -0.000000   0.000000   0.000000
 -0.093853  90.050700  -1.297170  -0.688619  -3.502790  -3.066650   0.446241   1.433790  -0.436065   0.903811   2.864090  -0.883812   0.756344   1.287170  -0.017278   1.243950   2.608130   3.744390  -4.726990   0.756603   6.295050 -75.675400  15.281600   3.368730  -3.203810  -9.463320 -13.274100  13.983000  -2.975350   5.241260  47.929300  40.793500 -81.423300 -23.474600   0.006405   0.012237  -6.737300  -0.001666   0.001545 -34.865900   7.601060 -10.754600 -29.113100   0.000351   0.008964 -20.379200  -0.002336   0.005078 -28.752100   1.395080  -2.541460 -41.144900   0.003808  -0.002950 -27.402600   0.006558  -0.006452 -28.142300  -0.077207   0.144485 -32.980400  -0.004356   0.001314 -21.964900   0.002729  -0.006010 -30.971000  -0.872175   1.453700 -46.473300   0.004116  -0.016871 -30.951200  -0.000136  -0.004007   9.223690   2.640880   6.075520  68.624600   4.542690  -4.485340   1.614580 -10.863800  10.630900 -16.667400 -15.573800  -2.063880 -35.649200  30.338100  68.181000  31.689500  -0.003448  -0.000194  10.844700  -0.001215  -0.009647  33.408400   2.571810   3.891020  27.405700   0.000567  -0.007559  19.184000  -0.002406  -0.004333  28.129900  -1.665750  -3.112250  33.224800  -0.001289   0.005473  22.127700  -0.003296  -0.011532  28.311300  -3.803230  -7.019340  36.685600  -0.001780   0.005609  24.432600   0.009127  -0.005486  36.831500  -4.802620  -6.377410  55.650100  -0.001417  -0.002791  37.063000   0.005792  -0.004629  -0.570725   3.939220   2.395270  -0.130044   1.482920  11.109000  -3.596820  -3.414470   3.382110   0.000000   0.000000   0.000000   2.643120   3.678700  -6.989280  -1.109050   2.868990  -6.220530 -10.133900  -0.030065   3.172740  -0.000000   0.000000  -0.000000
 -0.116555  90.050600  -1.320080  -0.694966  -3.571640  -3.104360   0.459775   1.481820  -0.434625   0.931251   2.960060  -0.881587   0.694805   1.323990  -0.015917   1.142990   2.683300   3.893670  -4.867890   0.646115   6.243370 -75.792600  15.601300   3.196890  -3.145850  -9.742060 -13.210000  13.987800  -2.765220   5.281720  47.850900  40.735200 -81.387400 -23.432100   0.006409   0.012256  -6.716040  -0.001642   0.001485 -34.901300   7.614510 -10.754500 -29.142800   0.000341   0.008981 -20.400000  -0.002266   0.005105 -28.752200   1.392430  -2.536500 -41.174500   0.003813  -0.002887 -27.422200   0.006577  -0.006478 -28.145300  -0.062848   0.117682 -33.002000  -0.004384   0.001379 -21.979300   0.002777  -0.005979 -30.998800  -0.863428   1.436740 -46.514600   0.004116  -0.016923 -30.978700  -0.000231  -0.003957   9.288150   2.556240   6.159390  68.593800   4.943020  -4.238030   1.536450 -10.773700  10.583000 -16.677200 -14.924000  -2.081440 -35.589600  30.281700  68.243000  31.749100  -0.003448  -0.000063  10.874500  -0.001219  -0.009761  33.429700   2.604540   3.937570  27.425000   0.000575  -0.007563  19.197500  -0.002427  -0.004261  28.136500  -1.637840  -3.059490  33.258500  -0.001295   0.005591  22.150100  -0.003389  -0.011502  28.318800  -3.779320  -6.973790  36.731100  -0.001797   0.005727  24.462900   0.009229  -0.005532  36.868700  -4.775930  -6.334950  55.699700  -0.001481  -0.002736  37.096100   0.005876  -0.004587  -0.572409   3.965380   2.392320  -0.127290   1.508570  11.129400  -3.591750  -3.402450   3.404060  -0.000000   0.000000   0.000000   2.705960   3.718470  -6.926220  -1.178880   2.900500  -6.285720 -10.133000  -0.043208   3.199260   0.000000   0.000000   0.000000
 -0.136538  90.050400  -1.347180  -0.705078  -3.652140  -3.150290   0.471347   1.530580  -0.434586   0.954811   3.057490  -0.882251   0.631558   1.378430  -0.014854   1.039190   2.793950   4.071240  -5.025110   0.572338   6.198830 -75.916800  15.960600   2.932930  -3.038860 -10.034300 -13.162800  13.996100  -2.628520   5.357460  47.909600  40.746300 -81.456300 -23.342800   0.006400   0.012286  -6.671390  -0.001605   0.001440 -34.910800   7.641270 -10.782800 -29.153900   0.000328   0.008997 -20.407800  -0.002188   0.005136 -28.750900   1.406800  -2.562610 -41.193500   0.003822  -0.002823 -27.434800   0.006601  -0.006510 -28.146100  -0.028884   0.054217 -33.006200  -0.004417   0.001452 -21.982100   0.002834  -0.005944 -31.012600  -0.834653   1.387290 -46.534200   0.004116  -0.016983 -30.991800  -0.000220  -0.003900   9.335120   2.512430   6.203510  68.600400   5.332570  -3.847950   1.435300 -10.736900  10.505300 -16.672500 -14.186100  -2.111980 -35.584100  30.236900  68.175200  31.761100  -0.003446  -0.000081  10.880500  -0.001225  -0.009875  33.380900   2.612090   3.951750  27.385700   0.000577  -0.007565  19.170000  -0.002447  -0.004180  28.127700  -1.630260  -3.045730  33.174500  -0.001305   0.005719  22.094100  -0.003491  -0.011463  28.315400  -3.773410  -6.963280  36.656600  -0.001820   0.005852  24.413300   0.009338  -0.005585  36.841000  -4.768210  -6.327160  55.657300  -0.001542  -0.002680  37.067900   0.005968  -0.004534  -0.573877   4.064840   2.392990  -0.131402   1.469650  11.154500  -3.583170  -3.388120   3.426590  -0.000000   0.000000   0.000000   2.749270   3.757980  -6.916420  -1.230670   2.938320  -6.308980 -10.131400  -0.053608   3.246420  -0.000000   0.000000   0.000000
